<svg width="162" height="108" fill="none" xmlns="http://www.w3.org/2000/svg"><g clip-path="url(#a)"><path d="M30 93.744h-.044a23.46 23.46 0 0 1-1.61-.189.544.544 0 0 1 .155-1.076c.52.076 1.04.135 1.563.178a.538.538 0 0 1-.043 1.076l-.022.01.001.001Zm5.37-.205a.54.54 0 0 1-.08-1.076 19.515 19.515 0 0 0 1.54-.306.538.538 0 0 1 .58.808.538.538 0 0 1-.332.241 21.86 21.86 0 0 1-1.611.323l-.097.01Zm-12.137-1.312a.537.537 0 0 1-.183-.033 24.418 24.418 0 0 1-1.525-.608.54.54 0 0 1 .424-.99c.483.21.983.404 1.472.587a.538.538 0 0 1-.188 1.044Zm18.759-.829a.538.538 0 0 1-.242-1.022c.467-.226.934-.479 1.39-.742a.537.537 0 0 1 .538.93c-.478.275-.967.538-1.45.78a.535.535 0 0 1-.258.054h.022Zm-24.994-2.292a.536.536 0 0 1-.29-.08c-.457-.29-.913-.597-1.36-.91a.536.536 0 0 1 .612-.882c.436.307.876.597 1.322.883a.538.538 0 0 1-.284.99v-.001Zm30.772-1.544a.535.535 0 0 1-.408-.193.539.539 0 0 1 .06-.759l.117-.124a39.42 39.42 0 0 0 1.074-.957.538.538 0 0 1 .73.79c-.375.345-.74.673-1.106.985l-.123.102a.537.537 0 0 1-.344.156Zm-36.326-2.69a.537.537 0 0 1-.36-.14c-.402-.37-.8-.747-1.18-1.124a.539.539 0 0 1 .751-.769c.376.371.763.737 1.155 1.076a.538.538 0 0 1 .032.764.535.535 0 0 1-.398.194v-.001Zm41.305-2.21a.536.536 0 0 1-.398-.899c.355-.393.715-.79 1.074-1.2a.537.537 0 0 1 .806.71c-.365.415-.725.818-1.074 1.21a.537.537 0 0 1-.408.152v.027ZM6.724 79.723a.536.536 0 0 1-.424-.204c-.338-.43-.668-.866-.989-1.308a.54.54 0 0 1 .523-.845c.14.023.264.1.347.216.312.425.629.85.962 1.27a.539.539 0 0 1-.42.871h.001Zm50.579-2.383a.539.539 0 0 1-.419-.877c.338-.414.677-.828 1.015-1.253a.538.538 0 0 1 .935.486.537.537 0 0 1-.097.186l-1.02 1.259a.537.537 0 0 1-.414.199ZM2.9 73.887a.537.537 0 0 1-.473-.312c-.257-.5-.499-1-.714-1.485a.539.539 0 0 1 .685-.72.54.54 0 0 1 .298.285c.21.462.44.946.687 1.425a.54.54 0 0 1-.483.786v.021Zm58.753-2.028a.537.537 0 0 1-.424-.866l.988-1.275a.537.537 0 1 1 .848.656l-.988 1.275a.537.537 0 0 1-.424.188v.022ZM.682 67.286a.537.537 0 0 1-.537-.462A17.061 17.061 0 0 1 0 65.16a.538.538 0 1 1 1.074 0c.018.519.063 1.036.134 1.55a.539.539 0 0 1-.462.607l-.064-.032v.001Zm65.24-.973a.538.538 0 0 1-.43-.867l.984-1.28a.536.536 0 0 1 .853.65l-.993 1.265a.537.537 0 0 1-.414.21v.022Zm88.49-2.96a.723.723 0 0 1-.15 0 .535.535 0 0 1-.366-.666c.134-.474.28-.99.424-1.544a.537.537 0 1 1 1.037.274c-.145.538-.29 1.076-.43 1.565a.535.535 0 0 1-.515.372v-.001Zm-84.247-2.592a.535.535 0 0 1-.424-.867l.983-1.28a.541.541 0 0 1 .854.662l-.989 1.275a.536.536 0 0 1-.413.183l-.01.027h-.001Zm-68.924-.382a.537.537 0 0 1-.156 0 .537.537 0 0 1-.355-.673c.159-.528.338-1.05.537-1.565a.537.537 0 1 1 .994.403c-.193.49-.37.985-.537 1.474a.537.537 0 0 1-.473.334l-.01.027Zm154.782-3.863a.312.312 0 0 1-.102 0 .537.537 0 0 1-.43-.624c.097-.538.188-1.044.28-1.582a.544.544 0 0 1 .996-.249.55.55 0 0 1 .077.427c-.09.538-.182 1.076-.279 1.614a.534.534 0 0 1-.542.414ZM74.46 55.209a.537.537 0 0 1-.424-.872l1.004-1.27a.537.537 0 0 1 .838.673l-.999 1.264a.537.537 0 0 1-.408.205h-.011ZM4.436 54.165a.538.538 0 0 1-.43-.855c.323-.436.666-.872 1.02-1.297a.538.538 0 1 1 .822.694c-.34.401-.666.814-.977 1.237a.538.538 0 0 1-.435.221Zm74.408-4.417a.538.538 0 0 1-.414-.877l1.026-1.248a.538.538 0 0 1 .843.667l-1.02 1.243a.535.535 0 0 1-.435.215Zm78.124-.161h-.043a.538.538 0 0 1-.494-.576c.043-.538.075-1.076.107-1.614a.541.541 0 0 1 .564-.538c.295.018.52.27.505.565a54.384 54.384 0 0 1-.107 1.614.547.547 0 0 1-.152.385.532.532 0 0 1-.38.164ZM9.28 49.13a.536.536 0 0 1-.338-.958c.8-.646 1.316-.99 1.337-1.006a.537.537 0 0 1 .59.898s-.499.334-1.25.942a.536.536 0 0 1-.35.124h.011Zm74.075-4.74a.538.538 0 0 1-.403-.888c.35-.408.704-.817 1.074-1.22a.537.537 0 0 1 .806.71c-.355.403-.71.806-1.074 1.215a.536.536 0 0 1-.414.183h.011Zm73.742-1.797a.538.538 0 0 1-.537-.505 54.411 54.411 0 0 0-.118-1.614.533.533 0 0 1 .11-.412.553.553 0 0 1 .376-.204.535.535 0 0 1 .406.133.55.55 0 0 1 .182.386c.048.538.091 1.076.118 1.614 0 .285-.221.52-.505.538l-.032.064Zm-69.064-3.416a.536.536 0 0 1-.392-.904c.365-.398.735-.79 1.106-1.178a.536.536 0 1 1 .779.737l-1.074 1.173a.537.537 0 0 1-.44.172h.021Zm68.092-3.502a.538.538 0 0 1-.537-.409 22.537 22.537 0 0 0-.408-1.533.538.538 0 0 1 .765-.597c.122.06.216.163.265.29.151.538.296 1.05.425 1.587a.533.533 0 0 1-.207.563.536.536 0 0 1-.191.088l-.112.01v.001Zm-63.221-1.512a.537.537 0 0 1-.376-.92l1.165-1.13a.539.539 0 0 1 .763.76c-.387.365-.768.741-1.155 1.118a.536.536 0 0 1-.419.172h.022Zm5.14-4.745a.537.537 0 0 1-.355-.941l1.235-1.076a.54.54 0 1 1 .693.828c-.408.34-.817.689-1.225 1.039a.537.537 0 0 1-.37.15H98.044Zm55.197-.575a24.69 24.69 0 0 0-.779-1.378.542.542 0 0 1 .006-.616.54.54 0 0 1 .774-.106.534.534 0 0 1 .138.168c.285.463.537.947.811 1.431a.533.533 0 0 1-.212.722.54.54 0 0 1-.542-.01.54.54 0 0 1-.196-.211ZM103.5 25.055a.54.54 0 0 1-.322-.974c.44-.322.88-.634 1.32-.946a.538.538 0 1 1 .618.882l-1.3.93a.535.535 0 0 1-.338.108h.022Zm46.132-1.56a.541.541 0 0 1-.381-.161c-.359-.359-.74-.717-1.144-1.076a.534.534 0 0 1-.154-.577.534.534 0 0 1 .474-.363.54.54 0 0 1 .389.133c.408.36.81.742 1.197 1.135a.539.539 0 0 1 0 .759.53.53 0 0 1-.403.15h.022Zm-40.279-2.28a.537.537 0 0 1-.274-1.001c.473-.275.946-.538 1.418-.797a.541.541 0 1 1 .537.942c-.467.253-.929.538-1.39.785a.537.537 0 0 1-.344.07h.053v.001Zm34.737-1.894a.503.503 0 0 1-.258-.07c-.451-.248-.924-.49-1.407-.716a.54.54 0 0 1 .462-.974c.499.237.988.49 1.46.748a.535.535 0 0 1 .267.606.54.54 0 0 1-.524.406Zm-28.49-1.195a.537.537 0 0 1-.2-1.038c.505-.204 1.01-.398 1.52-.581a.538.538 0 0 1 .366 1.011c-.495.178-.989.366-1.483.57a.536.536 0 0 1-.247.038h.044Zm22.045-1.452a.782.782 0 0 1-.156 0c-.505-.15-1.02-.29-1.53-.41a.554.554 0 0 1 .252-1.075c.537.129 1.074.269 1.611.425a.542.542 0 1 1-.15 1.076l-.027-.016Zm-15.456-.597a.537.537 0 0 1-.118-1.066c.537-.107 1.074-.21 1.61-.29a.54.54 0 0 1 .621.455.536.536 0 0 1-.197.506.544.544 0 0 1-.257.114c-.537.082-1.036.178-1.557.286a.368.368 0 0 1-.102-.005Zm8.555-.603h-.038a32.491 32.491 0 0 0-1.579-.06.536.536 0 0 1-.365-.91c.096-.1.226-.159.365-.165.537 0 1.074.027 1.638.06a.54.54 0 0 1 .505.553.539.539 0 0 1-.537.522h.011Z" fill="#E6E6E6"/><path d="M119.847 100.221H58.146L70.332.793h55.025l5.747 7.601-11.257 91.827Z" fill="#39475F"/><path d="M113.172 100.221H51.465L63.651.793h61.706l-12.185 99.428Z" fill="#61728D"/><path d="M110.132 81.354H58.576l8.791-71.695h51.557l-8.792 71.695Z" fill="#181F27"/><path d="m92.743 50.055 14.897.177-.29 2.308-14.607-.252v-2.233Z" fill="#1E252E"/><path d="m51.465 100.221 7.422 6.864 60.037.915.923-7.779H51.465Z" fill="#39475F"/><path d="M99.096 29.058s2.572.183 3.888 5.03c1.316 4.847.865 18.377.865 18.377l-11.096-.177s-5.537-20.137 6.343-23.23Z" fill="#2D394B"/><path d="M5.42 32.843 45.778 0l21.18 26.119L26.603 58.96 5.42 32.843Z" fill="#FC7614"/><path d="M27.49 21.931 45.56 7.226l3.497 4.313-18.07 14.706-3.497-4.314Z" fill="#fff"/><path opacity=".46" d="m25.272 45.175 5.338-4.345a2.771 2.771 0 0 1 3.902.404 2.781 2.781 0 0 1-.404 3.91l-5.338 4.344a2.773 2.773 0 0 1-4.51-2.443 2.78 2.78 0 0 1 1.012-1.871v.001Zm12.058-9.81 16.89-13.743a2.771 2.771 0 0 1 3.902.404 2.781 2.781 0 0 1-.405 3.909L40.83 39.679a2.773 2.773 0 0 1-4.51-2.443 2.78 2.78 0 0 1 1.012-1.871h-.002Z" fill="#fff"/><path opacity=".3" d="M17.937 37.316a3.676 3.676 0 0 0 3.673-3.68 3.676 3.676 0 0 0-3.673-3.68 3.677 3.677 0 0 0-3.673 3.68 3.677 3.677 0 0 0 3.673 3.68Z" fill="#fff"/><path opacity=".3" d="M21.664 33.964a3.676 3.676 0 0 0 3.673-3.68 3.676 3.676 0 0 0-3.673-3.68 3.677 3.677 0 0 0-3.673 3.68 3.677 3.677 0 0 0 3.673 3.68Z" fill="#fff"/><path d="M99.096 29.058s-5.838 2.103-3.803 18.581c1.493 12.073-3.55 28.056-11.004 28.25-7.454.193-21.202-.463-21.202-.463s7.159-18.56 5.676-34.145a14.787 14.787 0 0 1 .763-6.456c.87-2.373 2.487-4.842 5.494-5.245 6.004-.818 24.076-.522 24.076-.522Z" fill="#BAD6FA"/><path d="m58.957 76.63 26.342-.537s-4.017-3.992-4.27-14.154l-36.234.538a31.495 31.495 0 0 0 2.841 7.531 12.547 12.547 0 0 0 11.32 6.623l.001-.001Z" fill="#546F8D"/><path d="m78.21 14.834-.918 6.041h26.621l.806-6.041H78.21Z" fill="#2D394B"/><path opacity=".48" d="M85.54 86.19c-2.872-2.517-7.416-2.022-9.446 1.222a4.956 4.956 0 0 0-.8 2.647c0 3.98 2.744 6.59 8.227 5.492 4.184-.839 5.779-6.073 2.02-9.36l-.001-.001Z" fill="#fff"/><path d="M147.188 96.379c8.18 0 14.812-6.643 14.812-14.837 0-8.194-6.632-14.837-14.812-14.837s-14.812 6.643-14.812 14.837c0 8.194 6.632 14.837 14.812 14.837Z" fill="#FC7614"/><path d="M73.731 35.75a.537.537 0 0 1-.413-.905.539.539 0 0 1 .375-.171c.113 0 11.343-.828 17.363-.29a.54.54 0 1 1-.096 1.076c-5.908-.538-17.079.274-17.186.285l-.043.005Zm-.891 7.279a.537.537 0 0 1-.413-.905.539.539 0 0 1 .375-.171c.113 0 11.342-.828 17.363-.29a.54.54 0 0 1-.097 1.076c-5.907-.538-17.073.28-17.185.285l-.043.005Zm-.102 7.564a.538.538 0 1 1-.043-1.076c.112 0 11.347-.829 17.362-.29a.54.54 0 0 1-.096 1.075c-5.908-.538-17.073.28-17.186.286l-.037.005Zm-.715 7.564a.538.538 0 0 1-.037-1.076c.112 0 11.342-.829 17.362-.285a.54.54 0 0 1-.096 1.076c-5.908-.538-17.073.28-17.186.285h-.043Z" fill="#fff"/></g><defs><clipPath id="a"><path fill="#fff" d="M0 0h162v108H0z"/></clipPath></defs></svg>